<svg width="68" height="68" viewBox="0 0 68 68" fill="none" xmlns="http://www.w3.org/2000/svg">
<g clip-path="url(#clip0_4_220)">
<path d="M13.2147 7.43958C11.1782 7.43958 10.9034 9.1927 10.9034 10.9076C10.9034 15.6307 13.8231 23.6236 24.769 23.6236H30.5462C31.8495 23.6236 32.7378 24.225 33.8633 24.9871C35.2474 25.9242 36.9722 27.0916 39.7892 27.0916H46.7224C51.1927 27.0916 53.6548 24.2179 53.6548 18.9996C53.6548 15.3255 51.5497 13.2196 47.8777 13.2196C45.0868 13.2196 43.078 13.726 40.9495 14.2644C38.4873 14.887 35.9408 15.5316 31.7015 15.5316C23.3502 15.5316 18.1263 11.0492 15.6159 8.89591C14.4868 7.92691 13.9195 7.43958 13.2147 7.43958ZM10.9756 19.1278C10.9317 19.448 10.9034 19.788 10.9034 20.1556C10.9034 22.413 11.9099 29.3915 23.9403 30.4264C24.3072 28.9672 24.5962 27.5414 24.701 25.9327C17.9612 25.9136 13.4683 23.0165 10.9756 19.1278ZM54.3023 25.5765C52.7425 28.0351 50.1443 29.4036 46.7224 29.4036V47.5971C53.1335 46.507 57.1207 42.3399 57.1207 36.3396C57.1207 33.4793 56.3479 31.4407 55.5298 29.2817C55.0906 28.1229 54.6493 26.9414 54.3023 25.5765ZM27.0208 25.9356C26.8834 28.2957 26.3798 30.294 25.8676 32.2121C25.3031 34.323 24.769 36.3148 24.769 38.6516C24.769 43.1219 27.5003 47.8996 35.168 47.8996H39.7892V29.4036C36.261 29.4036 34.039 27.897 32.5678 26.9017C31.5116 26.1863 31.0937 25.9356 30.5462 25.9356H27.0208ZM42.1005 29.4036V50.3646C41.1223 50.6224 40.2992 51.187 39.7056 51.8797C38.891 52.831 38.4186 53.9856 38.1013 55.0948C37.468 57.314 37.4786 59.4596 37.4786 59.4596C37.4786 59.5354 37.4857 59.6105 37.5006 59.6848C37.5155 59.7592 37.5374 59.8315 37.5665 59.9016C37.5955 59.9717 37.6309 60.0383 37.6734 60.1013C37.7152 60.1644 37.7634 60.2232 37.8172 60.277C37.871 60.3301 37.9291 60.3783 37.9922 60.4208C38.0552 60.4626 38.1218 60.498 38.1919 60.527C38.262 60.5561 38.3343 60.578 38.4087 60.5929C38.483 60.6078 38.5581 60.6156 38.6339 60.6156H47.8777C47.9535 60.6156 48.0285 60.6078 48.1029 60.5929C48.1773 60.578 48.2495 60.5561 48.3197 60.527C48.3898 60.498 48.4564 60.4626 48.5194 60.4208C48.5825 60.3783 48.6405 60.3301 48.6944 60.277C48.7482 60.2232 48.7964 60.1644 48.8382 60.1013C48.8807 60.0383 48.9161 59.9717 48.9451 59.9016C48.9742 59.8315 48.9961 59.7592 49.011 59.6848C49.0259 59.6105 49.033 59.5354 49.033 59.4596C49.033 59.4596 49.0436 57.314 48.4103 55.0948C48.093 53.9856 47.6205 52.831 46.8053 51.8797C46.2117 51.187 45.3893 50.6224 44.4111 50.3646V29.4036H42.1005ZM43.2558 52.5236C44.0739 52.5236 44.5648 52.8175 45.05 53.3835C45.5345 53.9495 45.9283 54.8179 46.1897 55.7316C46.5495 56.9925 46.5191 57.6207 46.5573 58.3036H39.9543C39.9925 57.6207 39.962 56.9925 40.3219 55.7316C40.5833 54.8179 40.9771 53.9495 41.4616 53.3835C41.9468 52.8175 42.4377 52.5236 43.2558 52.5236Z" fill="#2D2B2D"/>
</g>
<defs>
<clipPath id="clip0_4_220">
<rect width="68" height="68" fill="white"/>
</clipPath>
</defs>
</svg>
