<svg width="266" height="60" viewBox="0 0 266 60" fill="none" xmlns="http://www.w3.org/2000/svg">
<path d="M9.27715 32.5959C9.52681 38.5802 13.2718 44.2672 24.2079 44.2672C34.5942 44.2672 38.6393 40.0638 38.6393 33.5856C38.6393 27.8486 35.2436 24.6835 28.502 23.9417L21.5612 23.1006C18.8149 22.804 17.6661 21.3697 17.6661 19.4409C17.6661 16.8697 19.8135 15.2375 23.8579 15.2375C28.2523 15.2375 30.4495 17.2156 30.8492 20.2821H38.2894C37.8903 14.4464 33.7954 9.69836 23.8579 9.69836C14.5201 9.69836 10.0261 13.9519 10.0261 19.8862C10.0261 25.3266 13.3216 28.5411 19.2139 29.2335L26.5544 30.1726C29.5006 30.5685 30.9986 31.8541 30.9986 34.3274C30.9986 36.948 29.3513 38.6788 24.3075 38.6788C19.0645 38.6788 16.8674 36.1076 16.6675 32.5959H9.27715Z" fill="#2D2B2D"/>
<path d="M50.9186 44.07C56.0115 44.07 59.0081 41.5474 60.1562 38.135C60.1562 40.1631 60.3063 41.7946 60.5559 43.4269H66.9974C66.7477 41.3001 66.5984 39.322 66.5984 36.998V26.3157C66.5984 21.0732 62.9032 17.8588 55.313 17.8588C47.7228 17.8588 43.3284 21.4691 43.1285 26.7602H50.3688C50.4691 24.2383 52.0666 22.9034 55.4623 22.9034C58.8083 22.9034 59.8069 24.0403 59.8069 25.7712C59.8069 27.2054 59.0081 27.8486 56.7107 28.2445L50.8183 29.2336C44.3768 30.3212 42.6292 32.8932 42.6292 36.8494C42.6292 41.3001 45.8748 44.07 50.9186 44.07ZM53.4152 39.0748C51.4179 39.0748 49.92 38.0857 49.92 36.1076C49.92 34.2281 50.9684 33.2884 53.6151 32.6459L55.712 32.1514C57.2605 31.8048 58.5088 31.4589 59.8069 30.5685V31.6569C59.8069 36.2555 57.3103 39.0748 53.4152 39.0748Z" fill="#2D2B2D"/>
<path d="M91.3621 8.80872V22.4089C89.6144 19.5897 86.7181 17.9081 82.4233 17.9081C74.2839 17.9081 70.9387 23.9911 70.9387 31.0138C70.9387 38.1844 74.2839 44.218 82.4233 44.218C86.7181 44.218 89.6144 42.5865 91.3621 39.7673V43.4269H98.7524V8.80872H91.3621ZM84.7207 38.4817C80.0269 38.4817 78.3291 36.157 78.3291 31.0631C78.3291 25.9199 80.0269 23.6452 84.7207 23.6452C89.3648 23.6452 91.3621 26.0185 91.3621 31.0631C91.3621 36.1077 89.3648 38.4817 84.7207 38.4817Z" fill="#2D2B2D"/>
<path d="M123.516 8.80872V22.4089C121.768 19.5897 118.872 17.9081 114.577 17.9081C106.438 17.9081 103.092 23.9911 103.092 31.0138C103.092 38.1844 106.438 44.218 114.577 44.218C118.872 44.218 121.768 42.5865 123.516 39.7673V43.4269H130.906V8.80872H123.516ZM116.874 38.4817C112.181 38.4817 110.483 36.157 110.483 31.0631C110.483 25.9199 112.181 23.6452 116.874 23.6452C121.519 23.6452 123.516 26.0185 123.516 31.0631C123.516 36.1077 121.519 38.4817 116.874 38.4817Z" fill="#2D2B2D"/>
<path d="M136.295 43.4269H143.685V8.80872H136.295V43.4269Z" fill="#2D2B2D"/>
<path d="M161.71 39.1741C158.164 39.1741 155.817 37.6405 155.368 32.9425H174.394C174.493 32.3987 174.493 31.7062 174.493 30.9644C174.493 23.991 170.998 17.9081 161.56 17.9081C152.322 17.9081 148.128 23.8424 148.128 31.0137C148.128 37.9871 151.823 44.218 161.56 44.218C170.548 44.218 173.744 39.9159 174.443 35.959H167.352C166.653 37.7891 164.955 39.1741 161.71 39.1741ZM161.66 22.8533C165.355 22.8533 167.202 24.7328 167.452 28.4918H155.418C156.017 24.2876 158.114 22.8533 161.66 22.8533Z" fill="#2D2B2D"/>
<path d="M195.262 17.9081C190.718 17.9081 187.871 20.1828 186.274 23.5459V8.80872H178.883V43.4269H186.274V32.2008C186.274 26.3158 188.471 23.8424 192.416 23.8424C195.461 23.8424 197.159 25.4253 197.159 29.3815V43.4269H204.55V28.2446C204.55 21.7657 201.803 17.9081 195.262 17.9081Z" fill="#2D2B2D"/>
<path d="M227.666 18.6992V29.9254C227.666 35.5138 225.368 38.2344 221.673 38.2344C218.528 38.2344 216.779 36.6515 216.779 32.7446V18.6992H209.389V33.833C209.389 40.3111 212.285 44.218 218.827 44.218C223.321 44.218 226.118 41.9926 227.666 38.6789V43.4269H235.056V18.6992H227.666Z" fill="#2D2B2D"/>
<path d="M251.98 43.4269H256.673V37.5912H250.182V24.2383H257.373V18.6992H250.182V12.8142H246.437L243.391 18.6499L238.247 20.7273V24.2383H242.792V34.5247C242.792 40.4104 244.889 43.4269 251.98 43.4269Z" fill="#2D2B2D"/>
</svg>
